<svg width="47" height="36" viewBox="0 0 47 36" fill="none" xmlns="http://www.w3.org/2000/svg">
<path d="M1.23684 13.2H0C0 13.5183 0.13031 13.8235 0.362263 14.0485C0.594216 14.2736 0.908811 14.4 1.23684 14.4V13.2ZM1.23684 22.8V21.6C0.908811 21.6 0.594216 21.7264 0.362263 21.9515C0.13031 22.1765 0 22.4817 0 22.8H1.23684ZM45.7632 13.2V14.4C46.0912 14.4 46.4058 14.2736 46.6377 14.0485C46.8697 13.8235 47 13.5183 47 13.2H45.7632ZM45.7632 22.8H47C47 22.4817 46.8697 22.1765 46.6377 21.9515C46.4058 21.7264 46.0912 21.6 45.7632 21.6V22.8ZM6.18421 2.4H18.5526V0H6.18421V2.4ZM18.5526 2.4H40.8158V0H18.5526V2.4ZM40.8158 33.6H18.5526V36H40.8158V33.6ZM18.5526 33.6H6.18421V36H18.5526V33.6ZM17.3158 1.2V34.8H19.7895V1.2H17.3158ZM3.85895 15.456C4.55381 16.131 4.9441 17.046 4.9441 18C4.9441 18.954 4.55381 19.869 3.85895 20.544L5.61032 22.2432C6.18475 21.686 6.64042 21.0245 6.95131 20.2965C7.26219 19.5684 7.42221 18.7881 7.42221 18C7.42221 17.2119 7.26219 16.4316 6.95131 15.7035C6.64042 14.9755 6.18475 14.314 5.61032 13.7568L3.85895 15.456ZM43.1411 20.544C42.4462 19.869 42.0559 18.954 42.0559 18C42.0559 17.046 42.4462 16.131 43.1411 15.456L41.3897 13.7568C40.8153 14.314 40.3596 14.9755 40.0487 15.7035C39.7378 16.4316 39.5778 17.2119 39.5778 18C39.5778 18.7881 39.7378 19.5684 40.0487 20.2965C40.3596 21.0245 40.8153 21.686 41.3897 22.2432L43.1411 20.544ZM1.23684 14.4C2.18921 14.4 3.13663 14.7504 3.85895 15.456L5.61032 13.7568C5.03594 13.1997 4.35409 12.7578 3.60368 12.4564C2.85328 12.1549 2.04902 11.9999 1.23684 12V14.4ZM2.47368 13.2V6H0V13.2H2.47368ZM2.47368 30V22.8H0V30H2.47368ZM3.85895 20.544C3.13663 21.2496 2.18921 21.6 1.23684 21.6V24C2.81753 24 4.40316 23.4144 5.61032 22.2432L3.85895 20.544ZM43.1411 15.456C43.8634 14.7504 44.8108 14.4 45.7632 14.4V12C44.1825 12 42.5968 12.5856 41.3897 13.7568L43.1411 15.456ZM44.5263 6V13.2H47V6H44.5263ZM44.5263 22.8V30H47V22.8H44.5263ZM45.7632 21.6C44.8108 21.6 43.8634 21.2496 43.1411 20.544L41.3897 22.2432C41.9641 22.8003 42.6459 23.2422 43.3963 23.5436C44.1467 23.8451 44.951 24.0001 45.7632 24V21.6ZM6.18421 33.6C5.20012 33.6 4.25633 33.2207 3.56047 32.5456C2.86461 31.8705 2.47368 30.9548 2.47368 30H0C0 31.5913 0.651549 33.1174 1.81131 34.2426C2.97108 35.3679 4.54406 36 6.18421 36V33.6ZM40.8158 36C42.4559 36 44.0289 35.3679 45.1887 34.2426C46.3485 33.1174 47 31.5913 47 30H44.5263C44.5263 30.9548 44.1354 31.8705 43.4395 32.5456C42.7437 33.2207 41.7999 33.6 40.8158 33.6V36ZM40.8158 2.4C41.7999 2.4 42.7437 2.77928 43.4395 3.45442C44.1354 4.12955 44.5263 5.04522 44.5263 6H47C47 4.4087 46.3485 2.88258 45.1887 1.75736C44.0289 0.632141 42.4559 0 40.8158 0V2.4ZM6.18421 0C4.54406 0 2.97108 0.632141 1.81131 1.75736C0.651549 2.88258 0 4.4087 0 6H2.47368C2.47368 5.04522 2.86461 4.12955 3.56047 3.45442C4.25633 2.77928 5.20012 2.4 6.18421 2.4V0Z" fill="#A80000"/>
</svg>
