<?xml version="1.0" encoding="UTF-8" standalone="no"?>
<!-- Created with Inkscape (http://www.inkscape.org/) -->

<svg
   version="1.1"
   id="svg1"
   width="4736"
   height="1408"
   viewBox="0 0 4736 1408"
   xmlns="http://www.w3.org/2000/svg"
   xmlns:svg="http://www.w3.org/2000/svg">
  <defs
     id="defs1" />
  <g
     id="g1">
    <path
       style="fill:#000000"
       d="m 2343.1368,1286.809 -48,-0.692 -0.4087,-7.9628 c -0.4591,-8.9438 1.2618,-11.3706 8.0631,-11.3706 4.7667,0 11.0026,-3.1435 12.466,-6.284 1.6571,-3.5565 2.0886,-77.2398 0.9165,-156.5122 -0.8242,-55.7429 -1.4063,-70.5744 -2.8376,-72.298 -0.9903,-1.1927 -3.9903,-2.5626 -6.6666,-3.0443 -7.34,-1.3211 -8.1994,-2.575 -8.1994,-11.9632 v -8.4419 l 59,0.3855 59,0.3855 11.7288,3.5651 c 27.6295,8.3985 47.0851,23.304 55.6291,42.6192 4.1946,9.4825 6.157,25.7986 4.3627,36.2733 -3.2745,19.1165 -17.3393,38.396 -35.4745,48.627 l -7.7539,4.3744 9.2742,5.1212 c 24.9963,13.8031 37.0683,32.7644 38.5345,60.5258 1.2428,23.5306 -4.171,38.6336 -18.7218,52.229 -10.1443,9.4783 -20.6171,15.2046 -35.9152,19.6378 -11.3514,3.2895 -34.4793,6.4369 -42.8052,5.8252 -2.3056,-0.1694 -25.792,-0.6194 -52.192,-1 z m 67.5922,-29.7674 c 14.5154,-7.1018 22.5636,-20.6861 23.4862,-39.6417 1.2423,-25.5242 -9.0038,-44.6963 -28.6391,-53.5887 -5.0613,-2.2921 -9.6717,-3.0309 -21.5436,-3.4524 l -15.1043,-0.5363 0.4376,48.2663 0.4376,48.2662 3.3199,2.687 c 2.9431,2.3821 4.8364,2.6309 16.6834,2.1924 11.2872,-0.4178 14.5379,-1.0693 20.9223,-4.1928 z m -9.3234,-128.8891 c 10.4986,-3.9297 19.7139,-12.5621 24.5189,-22.9682 3.5688,-7.729 3.8709,-9.5734 3.7782,-23.0673 -0.1142,-16.6185 -2.7082,-25.5302 -10.0071,-34.3793 -7.395,-8.9655 -21.9571,-14.2874 -39.0943,-14.2874 h -8.4042 l -0.8681,21 c -0.6618,16.0106 -1.2776,68.0743 -0.9091,76.864 0.091,2.1607 23.0156,-0.1786 30.9857,-3.1618 z m 98.9535,158.7422 c -0.3056,-0.3055 -0.5557,-4.3604 -0.5557,-9.0108 v -8.4552 l 5.3824,-2.1536 c 3.5358,-1.4148 6.7719,-4.1731 9.4324,-8.04 8.1451,-11.8385 12.9653,-23.9403 54.3491,-136.4515 6.6085,-17.9666 18.7132,-50.6666 26.8994,-72.6666 8.1861,-22 15.4795,-41.6501 16.2074,-43.6667 1.1989,-3.3214 1.9391,-3.6667 7.8598,-3.6667 3.5949,0 6.5362,0.2221 6.5362,0.4936 0,0.2715 5.454,15.4215 12.1199,33.6667 6.666,18.2452 25.8088,70.6731 42.5396,116.5064 43.089,118.0403 39.9395,110.7864 49.4338,113.8552 l 4.5734,1.4781 v 9.199 9.199 h -42 -42 v -9.8656 -9.8657 l 4.3315,-0.4177 c 9.2105,-0.8881 8.9918,-7.1321 -1.3049,-37.249 l -6.9518,-20.3333 h -37.5195 -37.5195 l -4.7994,17 c -5.8756,20.8117 -7.0486,29.1656 -4.9769,35.4431 1.3722,4.1578 2.1671,4.7888 6.4855,5.1478 l 4.9216,0.4091 v 9.9171 9.917 l -36.4443,0.083 c -20.0444,0.046 -36.6944,-0.1671 -37,-0.4727 z m 135.4443,-108.0356 c 0,-0.6918 -5.7,-17.117 -12.6666,-36.5003 -6.9667,-19.3834 -12.6667,-35.9174 -12.6667,-36.7422 0,-0.8248 -0.45,-1.4929 -1,-1.4847 -1.005,0.015 -25.6667,71.5359 -25.6667,74.4354 0,1.1244 7.1359,1.5497 26,1.5497 15.4043,0 26,-0.5126 26,-1.2579 z m 109.2549,107.5912 c -0.043,-0.55 -0.1137,-4.7145 -0.1568,-9.2545 l -0.079,-8.2544 6.775,-2.2087 c 3.7262,-1.2147 7.6661,-2.9482 8.7553,-3.8521 5.019,-4.1654 5.2329,-8.7901 4.2289,-91.4165 -1.1893,-97.8677 -2.3368,-130.7253 -4.737,-135.6459 -1.7105,-3.5068 -7.3643,-6.3728 -16.3751,-8.3008 -3.5699,-0.7639 -3.6667,-1.0273 -3.6667,-9.9849 v -9.2004 l 65.6667,0.2865 65.6667,0.2865 13.1624,3.5703 c 41.3519,11.2168 65.8116,36.0265 69.502,70.4968 2.3879,22.3047 -8.018,44.8337 -28.3145,61.3011 -8.8731,7.1992 -32.1926,19.8437 -36.5964,19.8437 -1.3311,0 -2.4202,0.3395 -2.4202,0.7544 0,1.252 73.7005,82.0093 82.1893,90.059 8.4624,8.0245 13.2465,10.9797 20.2001,12.4776 l 4.3893,0.9455 -0.3893,9.4073 -0.3894,9.4074 -45.6667,0.1411 -45.6666,0.141 v -9.5556 c 0,-6.4108 0.5433,-9.7366 1.651,-10.1058 1.2822,-0.4275 1.3035,-1.2711 0.095,-3.7778 -1.9759,-4.0992 -79.1326,-89.5583 -81.5329,-90.3063 -1.4727,-0.4589 -1.707,6.439 -1.3333,39.2611 0.417,36.6251 0.6671,40.2454 3.12,45.1511 2.3567,4.7134 3.6352,5.6374 11,7.9496 l 8.3333,2.6162 v 9.3838 9.3837 h -48.6667 c -26.7666,0 -48.7019,-0.45 -48.7451,-1 z m 103.9032,-140.2702 c 17.1929,-4.576 31.4867,-15.6293 38.3891,-29.686 3.5805,-7.2916 3.7836,-8.652 3.7381,-25.0438 -0.039,-14.2748 -0.5443,-18.6668 -2.8606,-24.8905 -8.0682,-21.6789 -25.3133,-33.1095 -49.9513,-33.1095 -16.1442,0 -15.3763,-1.2002 -16.3662,25.5778 -0.4694,12.6989 -0.9856,37.9394 -1.147,56.0901 l -0.2935,33.0012 10.6667,-0.017 c 5.8666,-0.01 13.8878,-0.8744 17.8247,-1.9223 z m 217.9369,139.7964 c -0.311,-0.8105 -0.3847,-5.3105 -0.1636,-10 l 0.402,-8.5262 7.7931,-0.6928 c 6.8786,-0.6115 8.3258,-1.2742 12.3333,-5.6471 l 4.5402,-4.9543 v -104.9319 c 0,-103.8097 -0.03,-104.9937 -2.7947,-110.7051 -2.8653,-5.9189 -10.0155,-11.1929 -17.5386,-12.9365 -3.5613,-0.8253 -3.6667,-1.1128 -3.6667,-10 v -9.1502 l 50.6667,-0.012 50.6667,-0.012 v 9.0139 9.0141 l -5.886,1.6479 c -7.1893,2.0129 -12.56,7.3528 -14.2986,14.2164 -0.7586,2.9947 -1.6282,48.2294 -2.0786,108.1196 -0.7528,100.0913 -0.704,102.9994 1.7444,104 1.3853,0.5661 16.9188,1.0046 34.5188,0.9744 54.6801,-0.094 69.7709,-5.5331 80.7746,-29.1139 2.0954,-4.4905 14.2366,-33.9645 26.9804,-65.4979 48.8619,-120.9047 62.7015,-154.7243 64.0008,-156.3976 0.8393,-1.0809 3.567,-1.5816 7.2643,-1.3333 l 5.9204,0.3976 9.8939,24.6667 c 5.4416,13.5666 25.8601,64.8666 45.3743,114 49.5817,124.838 48.4656,122.4521 58.6087,125.298 l 5.1826,1.4541 v 9.1767 9.1767 l -45.3334,-0.035 -45.3333,-0.035 v -9.8516 -9.8507 l 5.3333,-0.6667 5.3334,-0.6666 -0.1909,-9.3334 c -0.1615,-7.8915 -1.3207,-12.2168 -7.5046,-28 l -7.3136,-18.6666 h -41.7879 -41.7878 l -5.6375,18 c -5.7694,18.421 -7.2685,30.7232 -4.3975,36.0876 1.0083,1.8841 2.8048,2.579 6.6667,2.579 h 5.2864 v 10.3334 l 1e-4,10.3333 h -121.5031 c -87.4908,0 -121.6614,-0.4126 -122.0687,-1.4738 z m 312.905,-106.6689 c 0,-2.687 -29.9314,-76.4331 -30.6738,-75.5752 -1.1567,1.3367 -27.9928,73.3046 -27.9928,75.0699 0,0.8242 10.9443,1.3147 29.3333,1.3147 16.1333,0 29.3333,-0.3643 29.3333,-0.8094 z m 195.0917,106.6601 c -0.313,-0.8155 -0.3866,-4.9987 -0.1637,-9.2962 0.4015,-7.7383 0.4522,-7.8267 5.2716,-9.184 6.4237,-1.8092 10.1548,-5.3666 11.7855,-11.2371 1.5751,-5.6703 1.6776,-127.092 0.1527,-180.8001 -1.1796,-41.5441 -1.5208,-42.9375 -11.4427,-46.7267 l -6.0284,-2.3023 v -9.0479 -9.048 l 61.6667,0.3601 c 69.0339,0.4032 67.924,0.2737 89,10.382 21.0648,10.103 35.6881,28.4793 40.7428,51.1992 3.3368,14.9982 2.1848,40.6764 -2.3704,52.839 -11.283,30.1255 -34.443,49.6104 -70.3724,59.2058 -6.341,1.6934 -14.1231,2.3356 -28.9996,2.3933 l -20.333,0.079 0.058,30.6667 c 0.032,16.8667 0.5628,33.2816 1.1803,36.4776 1.5167,7.8509 5.2274,12.4313 12.1569,15.0064 l 5.7876,2.1507 -0.1919,8.516 c -0.1056,4.6838 -0.2217,8.816 -0.2582,9.1826 -0.036,0.3667 -19.6427,0.6667 -43.5694,0.6667 -30.6924,0 -43.6706,-0.4366 -44.0721,-1.4826 z m 94.6217,-127.2117 c 27.1389,-3.9241 40.1423,-21.7208 41.8711,-57.3057 1.7088,-35.173 -9.4395,-59.6426 -30.9966,-68.0351 -9.8188,-3.8226 -29.9148,-4.6121 -33.045,-1.2982 -2.581,2.7324 -4.2876,121.2003 -1.7927,124.443 1.4435,1.8762 5.0784,2.8645 12.2498,3.3308 1.4667,0.095 6.7377,-0.4153 11.7134,-1.1348 z m 104.0483,127.2205 c -0.3111,-0.8105 -0.3847,-5.3105 -0.1636,-10 l 0.4019,-8.5262 7.3334,-0.6949 c 8.2199,-0.7789 13.506,-3.6973 15.7945,-8.7199 1.1209,-2.4602 1.5388,-31.6695 1.5388,-107.5603 0,-103.0492 -0.03,-104.2458 -2.7947,-109.9561 -2.8653,-5.9189 -10.0155,-11.1929 -17.5386,-12.9365 -3.5618,-0.8255 -3.6667,-1.1119 -3.6667,-10.0107 v -9.1609 l 51.3333,-0.011 51.3334,-0.011 v 8.5589 c 0,8.1055 -0.1943,8.6339 -3.6667,9.9725 -9.9653,3.8418 -13.115,6.0927 -15.6667,11.196 -2.581,5.1621 -2.688,8.7094 -3.3333,110.5037 -0.5873,92.6485 -0.4285,105.2691 1.3333,106 3.7187,1.5425 66.9903,0.7213 76,-0.9865 17.0777,-3.2371 25.3654,-6.7556 32.3393,-13.7295 7.4756,-7.4756 7.4566,-7.4356 30.948,-65.1211 41.4592,-101.8072 69.1429,-168.784 70.4309,-170.3975 0.8591,-1.0763 3.614,-1.5805 7.2849,-1.3333 l 5.9033,0.3975 15.3227,38 c 8.4274,20.9 28.4366,70.7 44.4647,110.6667 45.7606,114.1054 45.4175,113.3902 55.2764,115.2397 l 4.6965,0.8811 v 9.6063 l 1e-4,9.6062 -45.6667,-0.1295 -45.6667,-0.1295 v -9.8705 -9.8705 l 5.067,-0.4178 c 10.219,-0.8427 9.8307,-7.9615 -2.1228,-38.9155 l -6.9511,-18 -42.2003,-0.3519 -42.2004,-0.3519 -4.9573,15.6852 c -9.6237,30.4506 -9.2969,40.3481 1.3765,41.6852 l 5.3217,0.6667 v 9.7461 9.7461 l -123.1697,0.2539 c -88.9205,0.1833 -123.327,-0.1559 -123.7353,-1.2199 z m 316.9083,-106.8595 c 0.01,-2.4115 -29.8419,-76.2755 -30.5491,-75.5941 -1.4588,1.4055 -29.0535,74.5837 -28.5057,75.5941 0.2982,0.55 13.7068,1 29.7969,1 16.09,0 29.2561,-0.45 29.2579,-1 z m 145.8856,107.7777 c -0.3056,-0.3055 -0.5556,-4.2807 -0.5556,-8.8336 v -8.2782 l 7.6071,-3.8329 c 14.1431,-7.1263 13.0596,0.5283 13.0596,-92.2661 0,-44.4951 -0.5156,-92.7503 -1.1457,-107.2336 l -1.1456,-26.3333 h -25.8274 c -37.3901,0 -40.2299,1.6159 -45.1918,25.7162 l -0.7652,3.7162 -12.2955,-0.3829 -12.2955,-0.3829 -0.3562,-33.6666 c -0.1959,-18.5167 -0.084,-33.6667 0.2484,-33.6667 0.3325,0 6.7928,1.6157 14.3562,3.5905 l 13.7516,3.5906 89.3334,0.4914 c 101.1607,0.5565 106.8393,0.1841 126.3561,-8.2861 2.2234,-0.96491 2.3361,0.9213 2,33.4622 l -0.3561,34.4847 -12.2566,0.3824 -12.2566,0.3823 -1.5639,-7.9492 c -2.0815,-10.5801 -5.458,-15.7651 -12.2838,-18.8637 -4.8858,-2.2179 -8.8619,-2.5638 -29.7621,-2.5892 l -24.1229,-0.029 -0.8771,24.2137 c -0.4823,13.3176 -0.877,60.4054 -0.877,104.6397 0,70.8986 0.2549,81.063 2.1516,85.8034 2.3417,5.8525 6.4179,9.3294 14.1817,12.0967 l 5,1.7822 v 9.3988 9.3988 h -46.7778 c -25.7278,0 -47.0278,-0.25 -47.3333,-0.5556 z m 107.9999,0 c -0.3055,-0.3055 -0.5555,-4.3704 -0.5555,-9.033 0,-8.0373 0.1904,-8.5463 3.6667,-9.8052 16.1756,-5.8579 17.6849,-8.7795 81.1036,-157.0009 l 46.3783,-108.3946 6.507,0.3946 6.5071,0.3947 6.4285,15.3333 c 35.7302,85.2244 85.7877,203.9911 91.5798,217.2831 11.6769,26.7966 13.4571,29.1693 23.4957,31.3167 3.5896,0.7679 3.6667,0.9869 3.6667,10.4256 v 9.6413 l -47.6667,-0.137 -47.6667,-0.1369 v -9.8631 -9.863 l 6,-0.6667 6,-0.6666 -0.052,-8.6667 c -0.052,-8.606 -2.6588,-16.5885 -13.3904,-41 l -3.0773,-7 h -43.9997 -43.9998 l -6.0736,18.5838 c -9.2089,28.1771 -8.397,37.8856 3.2597,38.9786 l 4.6667,0.4376 v 9.8708 9.8708 l -41.1112,0.1292 c -22.6112,0.071 -41.3612,-0.1208 -41.6667,-0.4264 z m 156.7779,-107.4593 c 0,-0.3749 -4.5656,-11.6249 -10.1458,-25 -5.5801,-13.3751 -11.8311,-28.5184 -13.891,-33.6518 -2.0599,-5.1333 -4.7688,-11.7333 -6.0197,-14.6666 l -2.2745,-5.3334 -14.5294,36.6667 c -7.9911,20.1667 -14.8816,38.0167 -15.3123,39.6667 l -0.7831,3 h 31.4779 c 17.3128,0 31.4779,-0.3067 31.4779,-0.6816 z m -3984.66664,94.0149 c 0.45322,-0.7333 1.42405,-1.3333 2.15738,-1.3333 0.73333,0 0.96251,0.6 0.50929,1.3333 -0.45323,0.7333 -1.42405,1.3333 -2.15738,1.3333 -0.73334,0 -0.96251,-0.6 -0.50929,-1.3333 z m 624.68704,-78.1701 c 0.024,-2.9934 0.8161,-4.1398 5.8674,-8.4966 l 3.8647,-3.3333 -3.1644,5.7426 c -3.9503,7.1685 -6.5966,9.6213 -6.5677,6.0873 z M 3911.8034,918.08139 c -34.8128,-5.4593 -65.6681,-22.0472 -92.0291,-49.4753 -23.5036,-24.455 -39.443,-48.5069 -85.5924,-129.1558 -35.6072,-62.2258 -44.8113,-77.5307 -65.751,-109.3334 -25.2117,-38.2908 -40.1716,-56.3257 -51.5278,-62.1192 -8.0217,-4.0923 -27.025,-5.8318 -48.433,-4.4334 l -18.6667,1.2193 v 130.6667 c 0,119.8891 0.1967,131.7114 2.384,143.3333 3.2815,17.4359 6.2891,23.1882 14.6082,27.9394 8.9081,5.0877 18.0292,6.4509 48.8415,7.2997 16.3742,0.451 26.5049,1.2687 27.6667,2.2329 2.0239,1.6796 2.6646,27.1548 0.7584,30.1549 -1.3729,2.1609 -65.4165,2.7555 -136.2588,1.2651 -45.5636,-0.9587 -60.6688,-0.7235 -112,1.7438 -38.9434,1.8719 -65.1753,2.5375 -76.3333,1.937 l -17,-0.915 v -16.3211 -16.3211 l 5,-0.8265 c 2.75,-0.4545 8.823,-0.833 13.4955,-0.8411 17.8885,-0.031 50.4097,-6.3545 61.3292,-11.9252 5.4925,-2.8021 10.3387,-10.5196 14.2897,-22.7561 3.3214,-10.2865 3.7076,-56.1376 2.5246,-299.6667 l -0.9668,-199.00001 h -11.0141 -11.0141 l -0.9388,-9 c -2.3134,-22.1783 -9.2564,-48.18059 -16.9408,-63.44522 -8.0513,-15.99359 -18.4903,-23.40089 -40.7104,-28.88726 -18.6466,-4.60404 -34.3568,-5.33418 -114.7729,-5.33418 h -78.4906 l -1.4462,210.99997 c -0.7954,116.05 -1.2983,250.6 -1.1176,299 0.3549,95.0536 0.5198,97.4021 7.7367,110.2429 5.5871,9.9409 19.6061,14.2565 57.7033,17.7633 12.4666,1.1475 24.6336,2.396 27.0377,2.7743 l 4.371,0.6879 -0.8833,14.2658 c -0.4858,7.8462 -1.546,15.0999 -2.356,16.1193 -1.2426,1.564 -12.4055,1.6911 -71.4877,0.814 -99.7499,-1.4807 -118.3186,-1.4495 -190.0151,0.3193 -48.7905,1.2037 -75.0902,1.2126 -110.6666,0.037 -57.8547,-1.9111 -97.745,-2.0139 -200.8143,-0.5177 -46.522,0.6754 -81.1214,0.6754 -81.5381,0 -0.3981,-0.6452 -0.3317,-8.3731 0.1476,-17.1731 l 0.8714,-16 11.7484,-0.895 c 35.1651,-2.6788 52.4088,-18.1415 49.5568,-44.4384 -2.1069,-19.4264 -5.7675,-29.9277 -29.282,-84 -8.2915,-19.0666 -21.4073,-49.3666 -29.1463,-67.3333 l -14.0708,-32.6667 -61.0697,-0.9796 c -33.5883,-0.5389 -84.0997,-0.8389 -112.2474,-0.6667 l -51.1777,0.313 -29.2209,74.3753 c -16.0715,40.9064 -30.3916,78.9524 -31.8223,84.5466 -3.1306,12.2405 -3.398,29.2451 -0.6076,38.6414 4.0891,13.7695 18.8902,25.1802 37.8435,29.1751 4.8562,1.0235 14.9794,2.2645 22.496,2.7577 l 13.6667,0.8967 v 17.3364 17.3364 l -54.3333,-1.0372 c -29.8834,-0.5705 -62.7334,-1.1102 -73,-1.1995 -33.4454,-0.2907 -424.7345,1.9048 -446.6667,2.5062 -11.7333,0.3218 -51.0333,0.6582 -87.3333,0.7475 l -66,0.1625 -0.3745,-16.1334 c -0.4924,-21.2143 -0.3603,-21.4367 12.7547,-21.4753 14.7666,-0.043 42.4906,-2.3154 50.2864,-4.121 20.2208,-4.6833 31.3715,-19.0408 34.1557,-43.9784 1.3222,-11.8429 -0.5602,-376.1983 -2.3173,-448.53701 -2.3653,-97.37576 -2.4064,-98.08005 -6.1397,-105.35973 -7.1685,-13.97796 -23.6225,-25.15789 -44.0537,-29.93312 -20.0118,-4.67719 -34.9906,-5.37381 -115.5466,-5.37381 h -78.6734 l -0.067,136.16216 c -0.037,74.88931 -0.3081,136.55191 -0.6024,137.02801 -0.2943,0.4762 -0.6644,72.2532 -0.8224,159.5045 -0.2484,137.1855 -0.013,160.0936 1.7398,169.3974 5.2703,27.9728 11.9974,31.3447 74.0343,37.1083 10.4721,0.9729 19.4048,2.1336 19.8505,2.5792 0.4456,0.4457 0.2775,7.5776 -0.3736,15.8487 l -1.1838,15.0384 -56,-0.021 c -30.8,-0.012 -75.5,-0.3116 -99.3333,-0.6667 -23.8333,-0.355 -75.286,0.1383 -114.3392,1.0962 -39.0533,0.958 -71.6033,1.3725 -72.3333,0.9213 -0.765,-0.4727 -1.3275,-7.787 -1.3275,-17.2597 v -16.4392 l 17.6667,-0.8875 c 24.1933,-1.2154 47.7035,-4.2786 55.0812,-7.1766 12.3668,-4.8577 19.122,-13.7726 23.4143,-30.9 3.0693,-12.2472 2.343,-596.60599 -0.7454,-599.69431 -0.3355,-0.33552 -36.4915,-0.9206 -80.3467,-1.30018 -87.2178,-0.7549 -98.3634,-0.10034 -119.3832,7.01117 -11.1313,3.76598 -25.7184,13.25966 -32.4409,21.11338 -9.6041,11.22021 -15.6091,29.23892 -18.064,54.20323 -1.7586,17.8828 -2.9407,24.7516 -4.188,24.3334 -0.5467,-0.1834 -8.4428,-0.3334 -17.547,-0.3334 h -16.5529 l 0.5846,-25 c 1.5832,-67.70968 3.188,-144.96858 3.188,-153.47728 v -9.52271 h 16.0286 c 14.7267,0 16.4323,0.2634 21,3.24312 6.3071,4.1145 17.6779,7.89489 32.9714,10.96181 11.2955,2.26519 28.2816,2.43083 289.3333,2.82142 189.8938,0.28413 280.7438,-0.0304 288.1504,-0.99767 15.8744,-2.07309 25.1999,-4.74422 37.3859,-10.7086 10.6897,-5.23199 11.1147,-5.32008 25.6667,-5.32008 h 14.797 v 8 8 l 17.6667,0.0388 c 9.7166,0.0213 65.6666,0.2717 124.3333,0.55638 58.6667,0.28467 117.1667,0.0394 130,-0.54504 52.1077,-2.37307 78.6004,-3.08373 117.6319,-3.15544 22.5309,-0.0414 41.2628,0.22222 41.6264,0.58581 0.8293,0.82936 4.1273,171.60278 3.3276,172.31118 -0.3222,0.2854 -7.9757,0.8443 -17.0077,1.242 -11.8533,0.522 -16.5393,0.2933 -16.8438,-0.8219 -0.232,-0.8498 -1.071,-7.9623 -1.8645,-15.8056 -1.9632,-19.4069 -5.8661,-34.0096 -13.1157,-49.07284 -10.6407,-22.10922 -29.9454,-37.95842 -54.4209,-44.67979 -11.451,-3.14463 -52.4455,-4.4453 -143.6666,-4.55822 l -77,-0.0953 v 132.00005 132.00001 h 72.7192 c 74.5396,0 89.8154,-0.7513 109.6767,-5.3939 17.3223,-4.0491 23.3802,-7.2255 32.2581,-16.9141 12.3684,-13.4979 21.1271,-33.1913 24.7085,-55.55571 l 0.8322,-5.197 17.4134,0.7745 c 9.5774,0.4259 17.8326,1.2646 18.3449,1.8636 0.5124,0.5991 0.1051,18.1892 -0.905,39.08921 -1.7963,37.1683 -1.6199,102.6558 0.4499,167 l 0.8471,26.3334 h -18.881 c -13.9714,0 -19.0003,-0.4334 -19.3397,-1.6667 -0.2522,-0.9167 -1.145,-6.0954 -1.9839,-11.5083 -5.5555,-35.8456 -24.9749,-61.4035 -55.3321,-72.8223 -20.3312,-7.6476 -20.6181,-7.6705 -103.8083,-8.2886 l -77,-0.5722 v 128.0301 c 0,89.7169 0.4486,130.1444 1.4991,135.0957 4.0642,19.1544 15.8904,31.0021 36.5009,36.5672 8.243,2.2257 137.8028,2.6103 159.5254,0.4735 28.8499,-2.8379 54.865,-9.4119 72.4746,-18.3143 27.9867,-14.1486 52.9241,-40.0492 72.5364,-75.3382 l 7.5894,-13.6559 9.9371,-0.6667 9.9371,-0.6667 12.7937,-32 c 12.1408,-30.3671 59.4677,-149.5354 124.1734,-312.66661 16.1436,-40.7 43.9026,-110.60005 61.6868,-155.33338 l 32.3349,-81.33333 h 25.1316 25.1315 l 8.3111,18 c 9.0969,19.70193 29.6411,67.54503 47.8074,111.33333 27.6904,66.74528 134.8082,330.75359 159.3192,392.66669 39.739,100.378 66.0254,150.2364 92.8686,176.1478 19.4365,18.7618 34.5558,22.053 85.1084,18.5267 35.0584,-2.4455 47.8579,-5.8377 55.9897,-14.8386 5.9344,-6.5687 9.4002,-14.3678 11.6437,-26.2021 3.2794,-17.2986 1.7095,-589.55829 -1.6322,-594.96531 -1.5118,-2.44615 -153.0265,-3.70786 -171.1606,-1.4253 -25.8646,3.25559 -41.1486,9.4138 -55.4221,22.33059 -12.9378,11.70806 -19.9119,28.48492 -22.9018,55.09291 -0.7829,6.9666 -1.8194,16.1869 -2.3034,20.4896 l -0.8799,7.8229 -17.2932,-0.2272 c -9.5112,-0.125 -17.5116,-0.4457 -17.7785,-0.7126 -0.4964,-0.4963 1.8824,-123.66239 3.0394,-157.37275 0.3524,-10.26666 0.6538,-21.21666 0.6698,-24.33333 l 0.029,-5.66667 h 15.9408 c 14.6844,0 16.3173,0.25549 20.7175,3.24152 5.8629,3.97871 17.6793,7.95141 32.6751,10.98546 10.4542,2.11517 32.7935,2.32996 288,2.76909 185.4107,0.31904 280.6247,0.0201 288.6666,-0.90617 16.6206,-1.91446 26.1998,-4.56862 38.8697,-10.76982 10.6783,-5.22641 11.1287,-5.32008 25.5822,-5.32008 h 14.7125 l 0.4178,4.26588 0.4178,4.26587 8,-0.31395 c 4.4,-0.17268 16.7,-0.87945 27.3334,-1.57061 10.6333,-0.69116 34.9333,-1.89872 54,-2.68347 19.0666,-0.78475 40.9666,-1.99712 48.6666,-2.69415 7.7,-0.69704 37.4,-1.26413 66,-1.2602 44.5942,0.006 54.9434,0.39331 72.6667,2.71861 65.2823,8.56503 107.1493,26.30891 141.4266,59.93869 25.0411,24.56804 40.388,51.76469 47.4006,84 3.8606,17.74648 3.3441,48.17718 -1.1451,67.46288 -9.2405,39.6972 -28.6096,73.46321 -60.3488,105.20531 -16.1027,16.1042 -33.6963,29.6783 -50.3173,38.8216 -5.9019,3.2467 -8.5906,5.4399 -7.8372,6.3929 0.6307,0.7979 31.9214,45.8507 69.5348,100.1173 138.9552,200.4772 126.713,183.4519 145.2728,202.0317 18.0793,18.0989 37.2977,33.3726 50.1041,39.8197 10.8026,5.4383 25.5419,8.7981 50.8971,11.6019 11.5568,1.278 21.7624,2.8973 22.6791,3.5984 2.4362,1.8635 2.2619,21.4611 -0.2092,23.512 -2.758,2.2889 -29.9065,8.8635 -46.7908,11.3315 -26.3035,3.8447 -86.2029,8.7533 -105.3334,8.6318 -10.2666,-0.065 -23.7666,-0.9184 -30,-1.8959 z M 2441.5517,583.92699 c 76.476,-0.3373 85.0263,-0.5866 84.5352,-2.4649 -1.8477,-7.0656 -88.2719,-218.52731 -88.9732,-217.69831 -0.4745,0.5609 -18.1445,44.8198 -39.2667,98.35311 -21.1222,53.5334 -40.6429,102.8635 -43.3792,109.6225 -2.7363,6.759 -4.6232,12.6409 -4.1932,13.0709 0.43,0.4301 1.9999,0.4917 3.4887,0.137 1.4887,-0.3547 40.9935,-0.8138 87.7884,-1.0203 z m 1176.8803,-75.0817 c 56.9016,-11.6566 83.4932,-43.0929 92.7974,-109.70411 2.7495,-19.6841 2.0432,-69.3209 -1.2391,-87.0844 -12.7695,-69.10777 -60.7468,-105.82085 -138.4095,-105.91338 -12.2224,-0.0146 -22.4906,0.27352 -22.8182,0.64018 -0.3275,0.36667 -1.0041,68.88439 -1.5034,152.2616 l -0.9079,151.59491 7.0594,0.5817 c 14.1205,1.1634 55.042,-0.3322 65.0213,-2.3765 z m 642.1833,408.5219 c -22.5583,-1.7554 -56.8978,-7.3363 -78.4154,-12.7442 -128.5117,-32.2979 -216.605,-114.4846 -253.5033,-236.5061 -23.464,-77.5944 -23.4716,-184.7949 -0.019,-262.66661 39.4651,-131.03803 138.0113,-215.52239 282.2321,-241.9597 46.8627,-8.59047 96.909,-10.72889 141.5601,-6.0487 51.488,5.39681 86.4925,13.44842 126,28.98208 100.5687,39.54188 168.862,114.01254 199.9741,218.06252 8.1108,27.12571 11.8222,47.51821 17.2995,95.05411 1.7425,15.1232 1.8159,60.6495 0.1203,74.6977 -0.7001,5.7999 -1.9369,16.5453 -2.7485,23.8786 -2.376,21.4672 -10.0203,57.1822 -16.623,77.6639 -18.7656,58.2118 -45.0429,101.2754 -85.7403,140.5126 -56.3125,54.292 -127.6869,86.2063 -220.2821,98.4969 -24.0526,3.1926 -83.9011,4.5965 -109.8548,2.5769 z m 65.1881,-47.9303 c 55.0303,-5.0446 93.3228,-21.6021 126.0709,-54.5126 41.6772,-41.8838 66.1331,-106.0326 75.2843,-197.474 4.5889,-45.8544 3.9614,-123.4902 -1.369,-169.3593 -7.3642,-63.37011 -24.9987,-118.64251 -49.7631,-155.97407 -37.506,-56.53914 -94.5353,-84.02316 -174.2231,-83.96303 -120.2338,0.0907 -195.0615,73.17702 -219.8847,214.76769 -7.0821,40.39591 -8.0729,54.76331 -8.0364,116.52871 0.03,51.1929 0.3558,59.9663 3.0391,81.9178 8.6391,70.6749 24.5546,119.4868 52.8483,162.0822 41.7573,62.8646 112.0276,93.6874 196.0337,85.9866 z m -3771.48642,39.4158 c -0.42608,-0.4261 -111.94904,-0.762 -247.8288,-0.7463 l -247.054122,0.028 0.913264,-10.3423 c 1.937793,-21.9445 1.725924,-21.6198 14.131003,-21.6573 11.262253,-0.034 39.388315,-3.9186 48.297155,-6.6703 12.94392,-3.9979 21.54805,-13.6239 26.57686,-29.7331 2.15297,-6.8968 2.48407,-15.2009 3.11006,-78 0.38532,-38.6549 0.98942,-90.0815 1.34246,-114.2815 1.64302,-112.6262 2.18491,-328.69581 0.89952,-358.66671 -1.83389,-42.7598 -5.76985,-57.80444 -18.43474,-70.46398 -10.24737,-10.24304 -21.19902,-13.64545 -50.699317,-15.75106 l -21.766835,-1.55363 -0.220628,-5.449 c -0.121345,-2.99694 -0.271345,-10.24899 -0.333333,-16.11566 l -0.112705,-10.66667 38.666668,0.0274 c 21.26667,0.0151 128.90897,0.17277 239.20512,0.35044 110.29615,0.17767 200.84615,0.0153 201.22222,-0.36074 1.39955,-1.39955 95.27189,-0.39792 122.906,1.31142 31.10819,1.92423 97.14171,1.60478 125.33333,-0.60633 9.16667,-0.71895 39.03513,-1.32556 66.37437,-1.34802 l 49.70771,-0.0408 -0.37437,16.32525 -0.37438,16.32526 -11.33333,0.34944 c -17.7593,0.54763 -41.24172,2.98936 -49.9048,5.18918 -23.04556,5.85194 -31.12863,15.94902 -34.00475,42.4775 -2.30469,21.25778 -4.38694,242.12331 -3.81507,404.66671 0.47777,135.7994 0.83962,159.0304 2.57523,165.3333 4.8033,17.4433 13.14765,25.288 32.08328,30.1622 11.30801,2.9108 74.15505,4.0405 106.32035,1.9111 58.2038,-3.8531 79.4153,-13.3098 116.1589,-51.787 17.462,-18.2858 31.8887,-37.0188 39.0568,-50.7151 3.6727,-7.0177 5.6675,-9.5479 7.0953,-9 1.0924,0.4192 8.2371,0.7621 15.8771,0.7621 10.8409,0 13.8909,0.3992 13.8909,1.8181 0,1.5865 -40.8774,124.6637 -51.651,155.5153 l -3.9577,11.3333 -20.529,-0.6667 c -32.5892,-1.0583 -312.6791,-0.7737 -415.21812,0.4219 -51.34575,0.5987 -93.70452,0.7399 -94.1306,0.3139 z m -62.25466,-58.053 c 38.77559,-2.0603 59.95198,-6.7075 82.64878,-18.1374 17.13693,-8.63 25.7179,-14.8977 38.66841,-28.2438 22.86268,-23.5611 34.60443,-42.3701 41.38953,-66.3016 l 3.02424,-10.6666 0.39323,-232 c 0.26919,-158.81231 -0.0559,-235.5753 -1.03062,-243.33337 -2.78151,-22.13969 -9.98855,-35.96873 -23.37843,-44.85911 -4.04113,-2.68316 -7.51506,-4.63751 -7.71986,-4.34301 -0.37798,0.54354 0.41529,23.35652 2.98587,85.86878 0.78405,19.0667 1.4258,39.0891 1.42611,44.4943 l 5.8e-4,9.8276 -16.61438,-0.5531 c -9.13791,-0.3042 -16.88057,-0.8266 -17.20592,-1.161 -0.32534,-0.3343 -1.81909,-7.8577 -3.31944,-16.7186 -5.33146,-31.48715 -15.31118,-55.91903 -27.21184,-66.61875 -9.11205,-8.19252 -30.4049,-19.88034 -42.14478,-23.13363 -17.40366,-4.8228 -37.48778,-5.63925 -128.17031,-5.21029 l -86,0.40681 v 129.99996 130.00001 h 79.33334 c 77.6753,0 79.56463,-0.062 90.40049,-2.9527 6.08694,-1.6241 16.73611,-5.439 23.66481,-8.4777 10.09419,-4.427 13.86158,-6.9079 18.95789,-12.4841 10.23338,-11.1969 18.91216,-29.8395 22.95315,-49.30491 l 1.54605,-7.4472 h 18.57214 18.57213 l -0.0363,10.3333 c -0.02,5.6833 -0.60069,19.33331 -1.29049,30.33331 -2.73415,43.6007 -2.9111,69.8572 -0.80422,119.3334 1.17106,27.5 2.1296,54.65 2.1301,60.3333 l 9.1e-4,10.3333 h -19.24348 c -21.81142,0 -19.59834,1.3358 -22.09067,-13.3333 -2.63494,-15.5085 -7.93712,-33.5103 -12.2574,-41.616 -8.07122,-15.1431 -21.80328,-25.0442 -41.19271,-29.7008 -14.23317,-3.4182 -50.63398,-4.7904 -116.54907,-4.3937 l -62.66667,0.3772 -0.36269,125.3333 c -0.22359,77.2633 0.13943,128.6154 0.94651,133.8906 3.77427,24.6691 24.21372,36.5454 68.74952,39.9467 20.57733,1.5716 84.7996,1.6733 112.92549,0.1788 z"
       id="path1" />
  </g>
</svg>
